<svg id="i40" xmlns="http://www.w3.org/2000/svg" viewBox="0 0 82.53 66.89">
    <defs>
        <style>
            #i40{
                overflow: overlay;
            }
            #i40 *{
                transition: all .3s ease-in-out;
            }

            .rotate2{
                transform: rotate(0deg);
                transform-box: fill-box;
                transform-origin: 50% 50%;
            }
            #i40.hover .rotate2{
                transform: rotate(135deg);
            }

            .bar1{
                transform: translateX(0) scaleX(1);
            }
            #i40.hover .bar1{
                transform: translateX(17.2%) scaleX(.6);
            }
            .bar2{
                transform: translateX(0) scaleX(1);
            }
            #i40.hover .bar2{
                transform: translateX(-29.2%) scaleX(1.68);
            }

            .circle1{
                transform: translateY(0);
            }
            #i40.hover .circle1{
                transform: translateY(-17%);
            }
            .cls-1-40,.cls-3-40{fill:#faad1b;}.cls-2-40{fill:#ed2330;}.cls-3-40{fill-rule:evenodd;}
        </style>
    </defs>
    <title>4.0</title>
    <g id="Layer_2" data-name="Layer 2">
        <g id="Layer_1-2" data-name="Layer 1">
            <rect class="cls-1-40 bar1" x="35.45" width="26.7" height="5.32"/>
            <rect class="cls-2-40 bar2" x="35.45" y="11.22" width="15.84" height="5.32"/>
            <circle class="cls-2-40 circle1" cx="76.64" cy="17.1" r="5.89"/>
            <rect class="cls-1-40 rotate2" x="16.54" y="54.48" width="12.41" height="12.41" rx="1.52"/>
            <circle class="cls-2-40" cx="56.25" cy="44.53" r="4.96"/>
            <path class="cls-2-40"
                  d="M29,33.29h6.34A2.58,2.58,0,0,1,38,35.87h0a2.58,2.58,0,0,1-2.58,2.58H29v9.79H22.67V38.45H0V34.73L22.29.23H29Zm-21.85,0H22.67V8.88l-.75,1.36Z"/>
            <g id="Settings">
                <path class="cls-3-40"
                      d="M78.39,42.05A1.46,1.46,0,0,0,77,41a4.93,4.93,0,0,1-3.37-8.58,1.23,1.23,0,0,0,.13-1.68,21.68,21.68,0,0,0-3.53-3.57,1.25,1.25,0,0,0-1.7.13,5.12,5.12,0,0,1-5.56,1.25,5,5,0,0,1-3-4.84,1.23,1.23,0,0,0-1.09-1.3,22.18,22.18,0,0,0-5,0,1.25,1.25,0,0,0-1.11,1.28,5,5,0,0,1-3,4.76,5.16,5.16,0,0,1-5.53-1.26A1.24,1.24,0,0,0,42.42,27a22.17,22.17,0,0,0-3.61,3.57,1.25,1.25,0,0,0,.13,1.7,4.92,4.92,0,0,1,1.25,5.56,5.15,5.15,0,0,1-4.85,3,1.21,1.21,0,0,0-1.29,1.1A22,22,0,0,0,34,47a1.47,1.47,0,0,0,1.46,1.1,4.89,4.89,0,0,1,4.59,3.06,4.94,4.94,0,0,1-1.25,5.51,1.26,1.26,0,0,0-.13,1.69,21.67,21.67,0,0,0,3.53,3.57,1.24,1.24,0,0,0,1.7-.14,5.14,5.14,0,0,1,5.56-1.25,4.94,4.94,0,0,1,3,4.84,1.24,1.24,0,0,0,1.09,1.31,21.8,21.8,0,0,0,5,0,1.25,1.25,0,0,0,1.11-1.28,4.94,4.94,0,0,1,3-4.75,5.15,5.15,0,0,1,5.53,1.25,1.24,1.24,0,0,0,1.68.14,21.39,21.39,0,0,0,3.61-3.57,1.23,1.23,0,0,0-.13-1.69,4.93,4.93,0,0,1,3.31-8.59h.28a1.24,1.24,0,0,0,1.31-1.09A23.32,23.32,0,0,0,78.39,42.05ZM56.25,52a7.44,7.44,0,1,1,7.44-7.44A7.45,7.45,0,0,1,56.25,52Z"/>
            </g>
        </g>
    </g>
</svg>