<svg id="sgv-app" xmlns="http://www.w3.org/2000/svg" viewBox="0 0 98.24 94.12">
    <defs>
        <style>
            #sgv-app{
                overflow: overlay;
            }
            .rotate2{
                transform: rotate(0deg);
                transition: all .3s ease-in-out;
                transform-box: fill-box;
                transform-origin: 50% 50%;
            }
            #sgv-app:hover .rotate2, #sgv-app.hover .rotate2{
                transform: rotate(135deg);
            }

            .red-to-yellow{
                fill: #ed2330;
                transition: all .3s ease-in-out;
            }
            #sgv-app:hover .red-to-yellow, #sgv-app.hover .red-to-yellow{
                fill: #faad1b
            }

            .yellow-to-red{
                fill: #faad1b;
                transition: all .3s ease-in-out;
            }
            #sgv-app:hover .yellow-to-red, #sgv-app.hover .yellow-to-red{
                fill: #ed2330
            }

            .bar1{
                transform: translateX(0) scaleX(1);
                transition: all .3s ease-in-out;
            }
            #sgv-app:hover .bar1, #sgv-app.hover .bar1{
                transform: translateX(-20%) scaleX(1.65);
            }
            .bar2{
                transform: translateX(0) scaleX(1);
                transition: all .3s ease-in-out;
            }
            #sgv-app:hover .bar2, #sgv-app.hover .bar2{
                transform: translateX(11.6%) scaleX(.62);
            }
            .bar3{
                transform: translateX(0) scaleX(1);
                transition: all .3s ease-in-out;
            }
            #sgv-app:hover .bar3, #sgv-app.hover .bar3{
                transform: translateX(13.6%) scaleX(.45);
            }
            .bar4{
                transform: translateX(0) scaleX(1);
                transition: all .3s ease-in-out;
            }
            #sgv-app:hover .bar4, #sgv-app.hover .bar4{
                transform: translateX(25.5%) scaleX(.62);
            }

            .circle1{
                transform: translateY(0);
                transition: all .3s ease-in-out;
            }
            #sgv-app:hover .circle1, #sgv-app.hover .circle1{
                transform: translateY(32%);
            }
            .square1{
                transform: translateY(0);
                transition: all .3s ease-in-out;
            }
            #sgv-app:hover .square1, #sgv-app.hover .square1{
                transform: translateX(20%);
            }
            .cls-1{fill:#fff;}.cls-2{fill:#231f20;}.cls-3{fill:#faad1b;}.cls-4{fill:#ed2330;}
        </style>
    </defs>
    <title>Asset 3</title>
    <g id="Layer_2" data-name="Layer 2">
        <g id="Layer_1-2" data-name="Layer 1">
            <path class="cls-1"
                  d="M66.08,6.08h8.87A14.11,14.11,0,0,1,89.05,20.19V55.82A14.11,14.11,0,0,1,74.94,69.93H66.08A14.27,14.27,0,0,1,51.81,55.66V20.35A14.27,14.27,0,0,1,66.08,6.08Z"/>
            <path class="cls-2"
                  d="M84.94,71H56a5.18,5.18,0,0,1-5.18-5.18V10.24A5.19,5.19,0,0,1,56,5.06h29a5.14,5.14,0,0,1,5.13,5.14V65.82A5.13,5.13,0,0,1,84.94,71ZM56,7.11a3.14,3.14,0,0,0-3.14,3.13V65.77A3.15,3.15,0,0,0,56,68.91h29A3.09,3.09,0,0,0,88,65.82V10.2a3.09,3.09,0,0,0-3.09-3.09Z"/>
            <path class="cls-1"
                  d="M28.72,24.19H53.49a6.16,6.16,0,0,1,6.16,6.16V81.88A6.16,6.16,0,0,1,53.49,88H28.72a6.32,6.32,0,0,1-6.32-6.32V30.51a6.32,6.32,0,0,1,6.32-6.32Z"/>
            <path class="cls-2"
                  d="M55.54,89.06h-29a5.19,5.19,0,0,1-5.18-5.18V28.35a5.19,5.19,0,0,1,5.18-5.18h29a5.14,5.14,0,0,1,5.13,5.14V83.92A5.14,5.14,0,0,1,55.54,89.06Zm-29-63.85a3.15,3.15,0,0,0-3.14,3.14V83.88A3.15,3.15,0,0,0,26.57,87h29a3.1,3.1,0,0,0,3.09-3.1V28.31a3.1,3.1,0,0,0-3.09-3.1Z"/>
            <rect class="cls-3 yellow-to-red bar2" x="30.25" y="53.97" width="21.56" height="5.32"/>
            <rect class="cls-3" x="30.25" y="43.14" width="21.56" height="5.32"/>
            <rect class="cls-4 red-to-yellow" x="30.25" y="32.44" width="12.94" height="5.32"/>
            <rect class="cls-3 yellow-to-red" x="30.25" y="64.61" width="12.94" height="5.32"/>
            <rect class="cls-4 bar1" x="30.25" y="75.25" width="12.94" height="5.32"/>
            <rect class="cls-4 rotate2" x="72.56" y="14.66" width="25.68" height="25.68" rx="4.17"/>
            <rect class="cls-3 rotate2" x="18.08" width="17.53" height="17.53" rx="2.15"/>
            <rect class="cls-3 square1" x="66.47" y="81.95" width="12.17" height="12.17" rx="2.15"/>
            <rect class="cls-3 bar4" x="65.91" y="58.15" width="16.77" height="5.32"/>
            <rect class="cls-4" x="65.91" y="48.46" width="13.61" height="5.32"/>
            <circle class="cls-4 circle1" cx="8.08" cy="51.21" r="8.08"/>
        </g>
    </g>
</svg>