<svg id="outsource" xmlns="http://www.w3.org/2000/svg" viewBox="0 0 102.02 84.51">
    <defs>
        <style>
            .red-to-yellow{
                fill: #ed2330;
                transition: all .3s ease-in-out;
            }
            #outsource:hover .red-to-yellow, #outsource.hover .red-to-yellow{
                fill: #faad1b
            }

            .yellow-to-red{
                fill: #faad1b;
                transition: all .3s ease-in-out;
            }
            #outsource:hover .yellow-to-red, #outsource.hover .yellow-to-red{
                fill: #ed2330
            }

            .bar{
            transform: translateX(0) scaleX(1);
            transition: all .3s ease-in-out;
            }

            #outsource:hover .bar1, #outsource.hover .bar1{
                transform: translateX(-5.3%) scaleX(1.54);
            }

            #outsource:hover .bar2, #outsource.hover .bar2{
                transform: translateX(90.15%) scaleX(0);
            }

            #outsource:hover .bar3, #outsource.hover .bar3{
                transform: translateX(-8.4%) scaleX(1.88);
            }

            #outsource:hover .bar4, #outsource.hover .bar4{
                transform: translateX(-12.2%) scaleX(1.88);
            }

            #outsource:hover .bar5, #outsource.hover .bar5{
                transform: translateX(-75.6%) scaleX(2.67);
            }

            #outsource:hover .bar6, #outsource.hover .bar6{
                transform: translateX(5.1%) scaleX(0.47);
            }

            #outsource:hover .bar7, #outsource.hover .bar7{
                transform: translateX(-104.8%) scaleX(2.16);
            }
            .cls-1{fill:#fff;}.cls-2{fill:#231f20;}.cls-3{fill:#faad1b;}.cls-4{fill:#ed2330;}</style>
    </defs>
    <title>Asset 4</title>
    <g id="Layer_2" data-name="Layer 2">
        <g id="Layer_1-2" data-name="Layer 1">
            <circle class="cls-1" cx="51.01" cy="42.25" r="41.16"/>
            <path class="cls-2"
                  d="M51,84.51A42.26,42.26,0,1,1,93.26,42.25,42.31,42.31,0,0,1,51,84.51ZM51,2.19A40.06,40.06,0,1,0,91.07,42.25,40.1,40.1,0,0,0,51,2.19Z"/>
            <rect class="cls-1" x="1.1" y="12.89" width="99.82" height="58.04" rx="14.41"/>
            <path class="cls-2"
                  d="M96.41,72H5.61A5.61,5.61,0,0,1,0,66.42v-49a5.62,5.62,0,0,1,5.61-5.61h90.8A5.62,5.62,0,0,1,102,17.4v49A5.61,5.61,0,0,1,96.41,72ZM5.61,14A3.42,3.42,0,0,0,2.19,17.4v49a3.42,3.42,0,0,0,3.42,3.41h90.8a3.41,3.41,0,0,0,3.41-3.41v-49A3.41,3.41,0,0,0,96.41,14Z"/>
            <rect class="cls-3 yellow-to-red" x="9.79" y="20.56" width="32.19" height="4.69"/>
            <rect class="cls-3 yellow-to-red" x="67.8" y="20.56" width="24.37" height="4.69"/>
            <rect class="cls-3 bar bar1" x="9.79" y="30.16" width="53.65" height="4.69"/>
            <rect class="cls-4 red-to-yellow" x="46.32" y="20.56" width="17.11" height="4.69"/>
            <rect class="cls-3" x="59.98" y="39.55" width="32.19" height="4.69"
                  transform="translate(152.14 83.79) rotate(180)"/>
            <rect class="cls-4 bar bar3" x="9.79" y="39.55" width="24.37" height="4.69"
                  transform="translate(43.95 83.79) rotate(180)"/>
            <rect class="cls-3 bar bar4" x="38.52" y="39.55" width="17.11" height="4.69"
                  transform="translate(94.15 83.79) rotate(180)"/>
            <rect class="cls-4 bar bar2" x="67.8" y="30.16" width="24.37" height="4.69"/>
            <rect class="cls-3" x="9.79" y="48.94" width="32.19" height="4.69"/>
            <rect class="cls-3 bar bar2" x="67.8" y="48.94" width="24.37" height="4.69"/>
            <rect class="cls-3 bar bar6 " x="9.79" y="58.53" width="53.65" height="4.69"/>
            <rect class="cls-4 bar bar5" x="46.32" y="48.94" width="17.11" height="4.69"/>
            <rect class="cls-4 bar bar7" x="67.8" y="58.53" width="24.37" height="4.69"/>
        </g>
    </g>
</svg>